<?xml version="1.0" encoding="utf-8"?>
<!-- Generator: Adobe Illustrator 23.0.1, SVG Export Plug-In . SVG Version: 6.00 Build 0)  -->
<svg version="1.1" id="Warstwa_1" xmlns="http://www.w3.org/2000/svg" xmlns:xlink="http://www.w3.org/1999/xlink" x="0px" y="0px"
	 viewBox="0 0 290.31 51.87" style="enable-background:new 0 0 290.31 51.87;" xml:space="preserve">
<style type="text/css">
	.st0{fill:#F28F33;}
	.st1{fill:#122133;}
	.st2{fill-rule:evenodd;clip-rule:evenodd;fill:#F28F33;}
	.st3{fill:#C55A1C;}
	.st4{fill:#FCF1D0;}
</style>
<g>
	<path class="st0" d="M190.69,22.7l-5.14-12.26c-0.44-0.99-0.73-1.57-0.86-1.72c-0.14-0.16-0.43-0.24-0.88-0.26l-0.21-0.02V7.82
		h5.44v0.62h-0.22c-1.04,0-1.56,0.13-1.56,0.39c0,0.11,0.2,0.65,0.61,1.62l3.88,9.25l3.65-9.26c0.08-0.2,0.15-0.37,0.2-0.51
		c0.22-0.54,0.32-0.89,0.32-1.05c0-0.29-0.49-0.43-1.47-0.43h-0.22V7.82h3.87v0.62l-0.22,0.02c-0.47,0.02-0.75,0.09-0.86,0.22
		c-0.1,0.13-0.37,0.71-0.8,1.76l-4.85,12.27H190.69z"/>
	<path class="st0" d="M208.01,22.03c-1.27,0.49-2.43,0.73-3.47,0.73c-1.61,0-2.92-0.53-3.93-1.6c-1.01-1.07-1.51-2.45-1.51-4.15
		c0-1.62,0.45-2.94,1.36-3.97c0.9-1.03,2.07-1.55,3.48-1.55c1.31,0,2.32,0.43,3.02,1.3c0.7,0.87,1.06,2.1,1.06,3.71v0.19h-6.71
		c0,1.68,0.3,2.95,0.9,3.81c0.6,0.86,1.48,1.29,2.66,1.29c1.23,0,2.29-0.25,3.16-0.74V22.03z M201.34,16.07h4.56l0.01-0.44
		c0-1.25-0.17-2.15-0.5-2.71c-0.33-0.56-0.87-0.83-1.62-0.83c-0.75,0-1.35,0.36-1.79,1.08C201.56,13.89,201.34,14.86,201.34,16.07z"
		/>
	<path class="st0" d="M216.37,22.45c-0.51,0.2-0.99,0.31-1.45,0.31c-1.17,0-2.02-0.29-2.56-0.86c-0.54-0.58-0.81-1.49-0.81-2.75
		v-6.61h-1.62v-0.8h1.62V9.78l1.99-0.49v2.44h3.07v0.8h-3.07v6.87c0,0.93,0.13,1.58,0.38,1.98c0.25,0.39,0.68,0.59,1.28,0.59
		c0.32,0,0.7-0.1,1.16-0.31V22.45z"/>
	<path class="st1" d="M227.11,22.03c-1.27,0.49-2.43,0.73-3.47,0.73c-1.61,0-2.92-0.53-3.93-1.6c-1.01-1.07-1.51-2.45-1.51-4.15
		c0-1.62,0.45-2.94,1.36-3.97c0.9-1.03,2.07-1.55,3.48-1.55c1.31,0,2.32,0.43,3.02,1.3c0.7,0.87,1.06,2.1,1.06,3.71v0.19h-6.71
		c0,1.68,0.3,2.95,0.9,3.81c0.6,0.86,1.48,1.29,2.66,1.29c1.23,0,2.29-0.25,3.16-0.74V22.03z M220.44,16.07H225l0.01-0.44
		c0-1.25-0.17-2.15-0.5-2.71c-0.33-0.56-0.87-0.83-1.62-0.83c-0.75,0-1.35,0.36-1.79,1.08C220.66,13.89,220.44,14.86,220.44,16.07z"
		/>
	<path class="st1" d="M232.42,14.67v5.27c0,0.89,0.08,1.43,0.24,1.61c0.16,0.18,0.64,0.29,1.45,0.34l0.44,0.01v0.62h-5.99V21.9
		l0.19-0.01c0.82-0.05,1.3-0.17,1.45-0.34c0.15-0.18,0.23-0.71,0.23-1.6V14.3c0-0.89-0.08-1.43-0.23-1.6
		c-0.15-0.17-0.64-0.29-1.45-0.35l-0.19-0.01v-0.62h3.87v2.03c0.91-1.52,2.1-2.27,3.57-2.27c0.2,0,0.43,0.04,0.68,0.11v2.95h-1.12
		l-0.01-0.18c-0.07-0.62-0.14-0.98-0.2-1.1c-0.06-0.12-0.21-0.17-0.46-0.17C233.88,13.09,233.06,13.62,232.42,14.67z"/>
	<path class="st1" d="M241.54,11.73v8.21c0,0.9,0.07,1.44,0.22,1.61c0.15,0.17,0.63,0.28,1.46,0.34l0.19,0.01v0.62h-5.74V21.9
		l0.19-0.01c0.82-0.05,1.3-0.17,1.45-0.34c0.15-0.18,0.23-0.71,0.23-1.6V14.3c0-0.89-0.08-1.43-0.23-1.6
		c-0.15-0.17-0.64-0.29-1.45-0.35l-0.19-0.01v-0.62H241.54z M239.55,9.78V7.82h1.99v1.96H239.55z"/>
	<path class="st1" d="M247.91,13.75c0.51-0.75,1.09-1.32,1.75-1.7c0.66-0.38,1.4-0.57,2.22-0.57c0.95,0,1.69,0.3,2.23,0.91
		c0.53,0.61,0.8,1.45,0.8,2.51v5.03c0.05,0.99,0.13,1.54,0.23,1.67s0.59,0.22,1.46,0.28l0.18,0.01v0.62h-5.74V21.9l0.18-0.01
		c0.86-0.06,1.35-0.15,1.46-0.28c0.11-0.13,0.19-0.68,0.23-1.67v-4.72c0-0.93-0.12-1.57-0.37-1.93s-0.69-0.54-1.32-0.54
		c-0.45,0-0.95,0.14-1.5,0.41c-0.55,0.27-1.16,0.69-1.81,1.25v5.54c0,0.9,0.07,1.44,0.22,1.61c0.15,0.17,0.63,0.28,1.46,0.34
		l0.19,0.01v0.62h-5.74V21.9l0.19-0.01c0.82-0.05,1.3-0.17,1.45-0.34c0.15-0.18,0.23-0.71,0.23-1.6V14.3c0-0.89-0.08-1.43-0.23-1.6
		c-0.15-0.17-0.64-0.29-1.45-0.35l-0.19-0.01v-0.62h3.87V13.75z"/>
	<path class="st1" d="M264.58,21.04c-1.19,1.15-2.36,1.72-3.53,1.72c-0.93,0-1.71-0.29-2.33-0.87c-0.62-0.58-0.93-1.31-0.93-2.18
		c0-1.02,0.4-1.85,1.22-2.49c0.92-0.73,2.49-1.09,4.7-1.09h0.42v-1.34c0-1.7-0.66-2.55-1.97-2.55c-0.61,0-1.16,0.19-1.63,0.56
		c-0.28,0.23-0.45,0.69-0.53,1.38l-0.01,0.19h-1.36v-1.98c1.4-0.6,2.71-0.9,3.91-0.9c2.39,0,3.58,1.08,3.58,3.23v4.81
		c0,0.86,0.08,1.47,0.23,1.82c0.15,0.35,0.42,0.53,0.79,0.53c0.14,0,0.31-0.03,0.54-0.09l0.06,0.74c-0.48,0.17-0.91,0.25-1.29,0.25
		C265.47,22.76,264.84,22.19,264.58,21.04z M264.12,20.81v-4.08h-0.47c-1.17,0-2.09,0.24-2.75,0.72c-0.66,0.48-0.99,1.14-0.99,1.97
		c0,0.62,0.21,1.14,0.62,1.55c0.41,0.41,0.92,0.62,1.54,0.62C262.65,21.6,263.33,21.34,264.12,20.81z"/>
	<path class="st1" d="M272.28,14.67v5.27c0,0.89,0.08,1.43,0.24,1.61c0.16,0.18,0.64,0.29,1.45,0.34l0.44,0.01v0.62h-5.99V21.9
		l0.19-0.01c0.82-0.05,1.3-0.17,1.45-0.34c0.15-0.18,0.23-0.71,0.23-1.6V14.3c0-0.89-0.08-1.43-0.23-1.6
		c-0.15-0.17-0.64-0.29-1.45-0.35l-0.19-0.01v-0.62h3.87v2.03c0.91-1.52,2.1-2.27,3.57-2.27c0.2,0,0.43,0.04,0.68,0.11v2.95h-1.12
		l-0.01-0.18c-0.07-0.62-0.14-0.98-0.2-1.1c-0.06-0.12-0.21-0.17-0.46-0.17C273.74,13.09,272.92,13.62,272.28,14.67z"/>
	<path class="st1" d="M278.84,26.43l3.61-3.92l-3.47-8.17c-0.37-0.87-0.63-1.42-0.81-1.63c-0.17-0.21-0.45-0.33-0.81-0.35l-0.2-0.01
		v-0.62h5.03v0.62h-0.21c-0.92,0-1.38,0.12-1.38,0.36c0,0.12,0.19,0.66,0.58,1.64l2.46,5.79l2.63-5.82
		c0.39-0.85,0.58-1.37,0.58-1.54c0-0.28-0.41-0.43-1.23-0.43h-0.27v-0.62h3.26v0.62l-0.19,0.01c-0.42,0.03-0.78,0.4-1.07,1.12
		c-0.05,0.13-0.18,0.41-0.39,0.85l-5.6,12.1H278.84z"/>
	<path class="st1" d="M196.82,46.13c-1.36,0.77-2.94,1.15-4.74,1.15c-2.3,0-4.12-0.69-5.44-2.08c-1.33-1.38-1.99-3.27-1.99-5.67
		c0-2.43,0.64-4.32,1.91-5.66c1.28-1.35,3.07-2.02,5.37-2.02c1.17,0,2.72,0.25,4.63,0.73v2.81h-1.25l-0.01-0.2
		c-0.01-0.2-0.02-0.39-0.03-0.59c0-0.65-0.31-1.16-0.92-1.53c-0.61-0.37-1.45-0.56-2.51-0.56c-1.52,0-2.73,0.64-3.63,1.91
		c-0.9,1.27-1.36,2.97-1.36,5.09c0,2.13,0.53,3.79,1.59,4.99c1.06,1.2,2.54,1.79,4.43,1.79c1.23,0,2.55-0.37,3.95-1.12V46.13z"/>
	<path class="st1" d="M202.26,31.24v13.1c0,0.9,0.07,1.44,0.22,1.61c0.15,0.17,0.63,0.28,1.46,0.34l0.19,0.01v0.62h-5.74V46.3
		l0.19-0.01c0.82-0.05,1.3-0.17,1.45-0.34c0.15-0.17,0.23-0.71,0.23-1.6V33.81c0-0.89-0.08-1.43-0.23-1.6
		c-0.15-0.18-0.64-0.29-1.45-0.34l-0.19-0.01v-0.62H202.26z"/>
	<path class="st1" d="M208.76,36.13v8.21c0,0.9,0.07,1.44,0.22,1.61c0.15,0.17,0.63,0.28,1.46,0.34l0.19,0.01v0.62h-5.74V46.3
		l0.19-0.01c0.82-0.05,1.3-0.17,1.45-0.34c0.15-0.17,0.23-0.71,0.23-1.6V38.7c0-0.89-0.08-1.43-0.23-1.6
		c-0.15-0.17-0.64-0.29-1.45-0.35l-0.19-0.01v-0.62H208.76z M206.76,34.17v-1.96h1.99v1.96H206.76z"/>
	<path class="st1" d="M215.13,38.15c0.51-0.75,1.09-1.32,1.75-1.7c0.66-0.38,1.4-0.57,2.22-0.57c0.95,0,1.69,0.31,2.23,0.91
		c0.53,0.61,0.8,1.45,0.8,2.51v5.03c0.05,0.99,0.13,1.54,0.23,1.67c0.11,0.13,0.59,0.22,1.46,0.28l0.18,0.01v0.62h-5.74V46.3
		l0.18-0.01c0.86-0.06,1.35-0.15,1.46-0.28s0.19-0.68,0.23-1.67v-4.72c0-0.93-0.12-1.57-0.37-1.93c-0.25-0.36-0.69-0.54-1.32-0.54
		c-0.45,0-0.95,0.14-1.5,0.41c-0.55,0.28-1.16,0.69-1.81,1.25v5.54c0,0.9,0.07,1.44,0.22,1.61c0.15,0.17,0.63,0.28,1.46,0.34
		L217,46.3v0.62h-5.74V46.3l0.19-0.01c0.82-0.05,1.3-0.17,1.45-0.34c0.15-0.17,0.23-0.71,0.23-1.6V38.7c0-0.89-0.08-1.43-0.23-1.6
		c-0.15-0.17-0.64-0.29-1.45-0.35l-0.19-0.01v-0.62h3.87V38.15z"/>
	<path class="st1" d="M228.24,36.13v8.21c0,0.9,0.07,1.44,0.22,1.61c0.15,0.17,0.63,0.28,1.46,0.34l0.19,0.01v0.62h-5.74V46.3
		l0.19-0.01c0.82-0.05,1.3-0.17,1.45-0.34c0.15-0.17,0.23-0.71,0.23-1.6V38.7c0-0.89-0.08-1.43-0.23-1.6
		c-0.15-0.17-0.64-0.29-1.45-0.35l-0.19-0.01v-0.62H228.24z M226.24,34.17v-1.96h1.99v1.96H226.24z"/>
	<path class="st1" d="M239.86,46.54c-1.05,0.41-2.08,0.62-3.09,0.62c-1.61,0-2.91-0.53-3.91-1.58c-1-1.05-1.5-2.42-1.5-4.11
		s0.48-3.04,1.44-4.06c0.96-1.02,2.24-1.53,3.84-1.53c0.82,0,1.89,0.16,3.21,0.49v2.57h-1.25l-0.01-0.18c0-1.48-0.67-2.22-1.99-2.22
		c-0.97,0-1.73,0.43-2.3,1.29c-0.57,0.86-0.86,2.03-0.86,3.5c0,1.5,0.34,2.69,1.01,3.56c0.67,0.87,1.59,1.3,2.75,1.3
		c1,0,1.88-0.17,2.64-0.5V46.54z"/>
</g>
<path class="st2" d="M111.46,12.51c0,0,5.43-3.72,6.09-3.25s-0.61,5.97-1.51,6.62L111.46,12.51z"/>
<path class="st2" d="M90.63,10.25c0,0-6.23-4.27-6.99-3.73c-0.76,0.54,0.7,6.85,1.74,7.6L90.63,10.25z"/>
<g>
	<path class="st0" d="M98.35,11.51c0.01,1.03,0.01,2.06,0.03,3.09c0.02,0.8,0.62,1.28,1.36,1.11c0.5-0.11,0.8-0.53,0.81-1.15
		c0.01-1.09,0.01-2.19,0.02-3.28c0.79,0.01,1.58,0.01,2.38,0.02c0,1.15-0.01,2.29,0.01,3.44c0.01,0.8,0.85,1.27,1.55,0.87
		c0.4-0.23,0.57-0.6,0.57-1.06c0-1.03,0.01-2.06,0.01-3.1c0.46,0.06,0.93,0.09,1.39,0.19c1.23,0.26,2.47,0.48,3.67,0.84
		c1.26,0.38,2.47,0.9,3.69,1.37c0.25,0.1,0.49,0.22,0.74,0.34c0.69,0.61,1.45,1.16,2.07,1.83c0.89,0.97,1.74,2,2.51,3.06
		c0.98,1.35,1.67,2.85,2.16,4.44c-0.05,0.27-0.13,0.54-0.14,0.81c0,0.69,0.03,1.37,0.05,2.06c0.06,1.83-0.36,3.58-0.94,5.31
		c-0.04,0.12-0.16,0.21-0.24,0.31c-1.28-0.41-2.54-0.86-3.84-1.2c-0.95-0.25-1.93-0.39-2.9-0.55c-0.55-0.09-1.04,0.18-1.23,0.6
		c-0.18,0.39-0.11,0.93,0.27,1.17c0.29,0.19,0.66,0.28,1.01,0.33c2.06,0.29,4.05,0.83,5.94,1.71c-0.37,0.72-0.74,1.43-1.11,2.15
		c-0.82-0.44-1.61-0.91-2.45-1.3c-0.79-0.36-1.62-0.67-2.46-0.93c-0.81-0.24-1.51,0.4-1.32,1.18c0.12,0.51,0.59,0.7,1.02,0.87
		c1.37,0.53,2.68,1.18,3.88,2.02c-0.05,0.08-0.08,0.16-0.14,0.23c-0.61,0.62-1.21,1.25-1.83,1.85c-1.2,1.15-2.56,2.1-4.06,2.82
		c-1.72,0.82-3.5,1.47-5.4,1.84c-2.06,0.4-4.12,0.42-6.19,0.17c-2.17-0.27-4.22-0.93-6.17-1.88c-2.11-1.03-3.96-2.42-5.6-4.07
		c-0.27-0.27-0.52-0.56-0.78-0.84c0.55-0.35,1.07-0.75,1.65-1.04c0.87-0.45,1.78-0.82,2.66-1.25c0.77-0.37,0.86-1.31,0.19-1.76
		c-0.33-0.22-0.69-0.19-1.04-0.06c-1.54,0.56-3.07,1.15-4.43,2.08c-0.05,0.04-0.11,0.06-0.17,0.09c-0.05-0.02-0.11-0.03-0.14-0.07
		c-0.4-0.69-0.8-1.39-1.19-2.09c1.2-0.41,2.39-0.87,3.61-1.22c0.84-0.24,1.72-0.33,2.59-0.5c0.14-0.03,0.27-0.07,0.41-0.12
		c0.54-0.18,0.83-0.63,0.74-1.14c-0.09-0.53-0.58-0.93-1.16-0.84c-1.2,0.19-2.4,0.4-3.57,0.7c-1.17,0.3-2.3,0.74-3.45,1.12
		c-0.02-0.07-0.04-0.15-0.07-0.22c-0.88-2.44-1.26-4.95-1.04-7.54c0.01-0.16-0.1-0.33-0.15-0.49c0.22-0.62,0.4-1.26,0.66-1.86
		c1.2-2.78,3.06-5.09,5.31-7.13c0.37-0.33,0.76-0.63,1.15-0.95c0.48-0.17,0.97-0.31,1.45-0.51c1.89-0.77,3.85-1.27,5.85-1.65
		C97.14,11.62,97.75,11.58,98.35,11.51z M105.46,29.03c-0.36-0.2-0.71-0.51-1.09-0.58c-1.56-0.3-3.13-0.3-4.71-0.06
		c-0.63,0.1-1.26,0.2-1.64,0.78c-0.1,0.01-0.21,0.01-0.29,0.05c-0.36,0.17-0.7,0.37-1.07,0.52c-0.79,0.33-1.38,0.89-1.81,1.59
		c-0.89,1.45-0.79,2.94,0.24,4.17c0.19,0.23,0.4,0.45,0.6,0.67c-0.13,0.01-0.26,0.02-0.39,0.03c-0.46,0.05-0.7,0.28-0.77,0.72
		c-0.06,0.42,0.04,0.81,0.38,1.06c0.31,0.23,0.61,0.46,1.04,0.56c0.91,0.23,1.81,0.27,2.73,0.12c0.45,0.11,0.89,0.25,1.35,0.34
		c1.63,0.3,3.24,0.24,4.81-0.33c0.58,0.02,1.16,0.09,1.74,0.05c0.67-0.05,1.33-0.22,1.89-0.6c0.48-0.33,0.66-0.87,0.5-1.37
		c-0.15-0.46-0.55-0.52-0.94-0.61c0.04-0.08,0.06-0.17,0.11-0.25c0.27-0.38,0.61-0.73,0.81-1.15c0.77-1.55,0.21-2.9-0.83-4.1
		C107.43,29.83,106.45,29.41,105.46,29.03z M97.75,26.35c0-0.04,0-0.13-0.01-0.22c-0.02-0.1-0.05-0.2-0.09-0.29
		c-0.34-0.9-0.93-1.62-1.7-2.18c-2.1-1.54-4.86-1.52-6.93,0.06c-0.41,0.31-0.76,0.72-1.05,1.15c-0.26,0.38-0.11,0.97,0.19,1.23
		c0.34,0.3,0.81,0.35,1.26,0.09c0.2-0.11,0.38-0.27,0.54-0.43c1.55-1.65,4.31-1.35,5.46,0.58c0.15,0.25,0.3,0.51,0.49,0.73
		c0.31,0.37,0.76,0.44,1.24,0.26C97.53,27.19,97.74,26.85,97.75,26.35z M105.85,26.13c0,1.04,0.7,1.53,1.43,1.17
		c0.31-0.16,0.57-0.51,0.75-0.83c1.11-1.93,3.71-2.4,5.37-0.95c0.22,0.19,0.4,0.43,0.63,0.62c0.33,0.27,0.82,0.29,1.17,0.09
		c0.4-0.23,0.61-0.62,0.5-1.06c-0.08-0.3-0.2-0.62-0.4-0.84c-1.01-1.12-2.32-1.71-3.83-1.79c-2.03-0.11-3.68,0.69-4.93,2.26
		C106.18,25.25,105.86,25.75,105.85,26.13z"/>
	<path class="st3" d="M86.69,38.18c0.26,0.28,0.51,0.57,0.78,0.84c1.64,1.66,3.49,3.04,5.6,4.07c1.95,0.95,4,1.62,6.17,1.88
		c2.07,0.25,4.13,0.23,6.19-0.17c1.89-0.37,3.68-1.01,5.4-1.84c1.5-0.72,2.86-1.67,4.06-2.82c0.63-0.6,1.23-1.23,1.83-1.85
		c0.06-0.06,0.09-0.15,0.14-0.23c0.45,0.37,0.91,0.74,1.36,1.1c0.24,0.19,0.2,0.38,0.02,0.59c-1.31,1.48-2.78,2.78-4.44,3.87
		c-0.83,0.54-1.7,1.05-2.59,1.43c-1.43,0.62-2.93,1.12-4.44,1.51c-2.34,0.6-4.75,0.71-7.15,0.47c-3.04-0.3-5.91-1.22-8.56-2.71
		c-0.98-0.55-1.98-1.11-2.84-1.82c-1.07-0.88-2.01-1.93-2.99-2.91c-0.05-0.05-0.05-0.26,0-0.3C85.71,38.91,86.2,38.55,86.69,38.18z"
		/>
	<path class="st4" d="M80.63,5.38c0.11-0.68,0.2-1.36,0.34-2.03c0.09-0.45,0.36-0.63,0.79-0.5c1.39,0.45,2.79,0.87,4.13,1.43
		c2.35,0.97,4.54,2.24,6.53,3.81c0.34,0.27,0.65,0.57,0.98,0.86c-0.9,0.48-1.76,0.95-2.62,1.39c-0.07,0.04-0.22,0-0.29-0.05
		c-1.88-1.45-3.92-2.62-6.1-3.57c-0.23-0.1-0.51-0.09-0.76-0.13c-0.03,0.26-0.09,0.52-0.08,0.77c0.02,0.33,0.1,0.65,0.16,0.98
		c0,0,0,0,0,0c0.01,0.06,0.01,0.11,0.02,0.17c0,0.11-0.03,0.23-0.01,0.33c0.26,1.13,0.48,2.28,0.81,3.39c0.21,0.69,0.61,1.33,0.93,2
		c-0.28,0.36-0.55,0.72-0.84,1.07c-0.14,0.17-0.32,0.32-0.48,0.47c-0.01-0.04,0-0.08-0.02-0.11c-1.07-1.47-1.78-3.12-2.4-4.82
		C81.11,9.07,80.75,7.25,80.63,5.38z"/>
	<path class="st4" d="M119.43,15.78c-0.45-0.49-0.89-0.98-1.34-1.47c1.01-1.98,1.66-4.07,1.77-6.29c0.04-0.3,0.11-0.6,0.12-0.91
		c0.01-0.18,0.01-0.43-0.1-0.51c-0.11-0.08-0.37-0.03-0.53,0.04c-2.24,0.94-4.3,2.17-6.24,3.62c-0.09,0.07-0.27,0.12-0.36,0.08
		c-0.89-0.44-1.76-0.91-2.69-1.39c0.31-0.26,0.6-0.53,0.91-0.76c1.07-0.81,2.19-1.55,3.36-2.23c2.21-1.27,4.51-2.34,6.98-3.02
		c0.84-0.23,1.22-0.09,1.33,0.77c0.09,0.68,0.17,1.35,0.25,2.03c0,0,0,0,0,0c0,0.12,0,0.24,0,0.36c-0.4,3.15-1.33,6.13-2.97,8.88
		C119.74,15.23,119.59,15.51,119.43,15.78z"/>
	<path class="st3" d="M119.43,15.78c0.16-0.27,0.32-0.54,0.48-0.81c1.64-2.75,2.58-5.73,2.97-8.88c0.06,0.43,0.14,0.86,0.19,1.29
		c0.21,1.74,0.15,3.48-0.07,5.21c-0.2,1.53-0.5,3.06-1.04,4.52c-0.19,0.51-0.35,1.02-0.56,1.62
		C120.69,17.67,120.06,16.73,119.43,15.78z"/>
	<path class="st3" d="M80.63,5.38c0.12,1.87,0.48,3.7,1.12,5.47c0.61,1.7,1.32,3.34,2.4,4.82c0.02,0.03,0.02,0.07,0.02,0.11
		c-0.17,0.25-0.34,0.5-0.51,0.74c-0.48,0.7-0.97,1.4-1.51,2.18c-0.23-0.66-0.44-1.24-0.63-1.82c-1.01-3.06-1.24-6.2-1.07-9.38
		C80.48,6.79,80.57,6.08,80.63,5.38z"/>
	<path class="st4" d="M114.57,14.19c-0.25-0.11-0.49-0.24-0.74-0.34c-1.23-0.47-2.44-0.99-3.69-1.37c-1.2-0.36-2.44-0.58-3.67-0.84
		c-0.45-0.1-0.92-0.13-1.39-0.19c0-0.61,0-1.22,0-1.85c2.74,0.52,5.21,1.6,7.52,3.08c0.58,0.38,1.14,0.8,1.7,1.2
		C114.4,13.97,114.48,14.09,114.57,14.19z"/>
	<path class="st4" d="M98.35,11.51c-0.6,0.07-1.21,0.11-1.81,0.22c-2,0.38-3.96,0.88-5.85,1.65c-0.47,0.19-0.96,0.34-1.45,0.51
		c1.08-0.72,2.12-1.5,3.25-2.15c1.81-1.04,3.76-1.75,5.85-2.13C98.35,10.25,98.35,10.88,98.35,11.51z"/>
	<path class="st3" d="M120.05,32.01c0.08-0.1,0.2-0.2,0.24-0.31c0.59-1.72,1-3.47,0.94-5.31c-0.02-0.69-0.06-1.37-0.05-2.06
		c0-0.27,0.09-0.54,0.14-0.81c0.2,0.71,0.44,1.41,0.6,2.12c0.36,1.63,0.41,3.28,0.31,4.94c-0.04,0.74-0.19,1.48-0.31,2.3
		C121.24,32.58,120.64,32.29,120.05,32.01z"/>
	<path class="st3" d="M82.12,23.83c0.05,0.16,0.16,0.33,0.15,0.49c-0.22,2.59,0.16,5.1,1.04,7.54c0.03,0.07,0.04,0.15,0.07,0.22
		c-0.51,0.24-1.02,0.48-1.58,0.75c-0.08-0.19-0.17-0.34-0.21-0.5c-0.26-1.24-0.37-2.5-0.27-3.76c0.1-1.24,0.28-2.47,0.45-3.7
		C81.84,24.51,82.01,24.17,82.12,23.83z"/>
	<path class="st3" d="M84.22,34.07c0.4,0.7,0.79,1.39,1.19,2.09c0.02,0.04,0.09,0.04,0.14,0.07c-0.5,0.36-1.01,0.72-1.51,1.09
		c-0.18,0.14-0.34,0.16-0.45-0.05c-0.36-0.7-0.72-1.41-1.05-2.12c-0.03-0.06,0.06-0.24,0.14-0.28
		C83.19,34.59,83.71,34.33,84.22,34.07z"/>
	<path class="st3" d="M118.18,36.23c0.37-0.72,0.74-1.43,1.11-2.15c0.51,0.26,1.04,0.51,1.53,0.8c0.11,0.06,0.2,0.33,0.15,0.43
		c-0.33,0.69-0.7,1.36-1.06,2.03c-0.02,0.04-0.07,0.07-0.15,0.13C119.24,37.06,118.71,36.65,118.18,36.23z"/>
	<path class="st4" d="M102.94,11.3c-0.79-0.01-1.58-0.01-2.38-0.02c-0.04-0.65-0.09-1.3-0.13-1.98c0.87,0,1.67,0,2.51,0
		C102.94,9.97,102.94,10.63,102.94,11.3z"/>
	<path class="st3" d="M122.88,5.73C122.88,5.73,122.88,5.74,122.88,5.73C122.88,5.74,122.88,5.73,122.88,5.73z"/>
	<polygon class="st3" points="83.74,8.33 83.74,8.34 83.75,8.33 	"/>
	<path class="st1" d="M108.04,36.14c0.39,0.09,0.79,0.15,0.94,0.61c0.16,0.5-0.02,1.04-0.5,1.37c-0.57,0.39-1.22,0.56-1.89,0.6
		c-0.58,0.04-1.16-0.03-1.74-0.05c-1.31-0.3-2.37-0.97-3.11-2.11c-0.12,0.17-0.21,0.3-0.31,0.43c-0.7,0.89-1.63,1.42-2.74,1.68
		c-0.92,0.15-1.82,0.1-2.73-0.12c-0.42-0.1-0.72-0.33-1.04-0.56c-0.35-0.25-0.44-0.64-0.38-1.06c0.06-0.44,0.31-0.66,0.77-0.72
		c0.13-0.02,0.26-0.02,0.39-0.03c0.53,0.15,1.06,0.35,1.6,0.44c1.51,0.25,3.08-0.87,3.26-2.37c0.08-0.68,0.01-1.39,0.01-2.01
		c-0.68-0.26-1.3-0.44-1.88-0.73c-0.66-0.33-0.97-0.91-0.87-1.65c0.03-0.24,0.12-0.46,0.19-0.69c0.39-0.59,1.01-0.69,1.64-0.78
		c1.57-0.24,3.15-0.24,4.71,0.06c0.39,0.08,0.73,0.38,1.09,0.58c0.65,1.41-0.03,2.29-1.3,2.78c-0.3,0.12-0.61,0.21-0.93,0.26
		c-0.27,0.05-0.34,0.17-0.33,0.41c0.01,0.37-0.01,0.74-0.01,1.11c0.01,2.1,1.87,3.49,3.95,2.94
		C107.24,36.42,107.64,36.27,108.04,36.14z"/>
	<path class="st4" d="M108.04,36.14c-0.4,0.13-0.8,0.28-1.2,0.39c-2.08,0.55-3.94-0.83-3.95-2.94c0-0.37,0.02-0.74,0.01-1.11
		c-0.01-0.24,0.07-0.37,0.33-0.41c0.32-0.05,0.63-0.14,0.93-0.26c1.27-0.49,1.94-1.37,1.3-2.78c0.99,0.38,1.98,0.81,2.68,1.62
		c1.04,1.2,1.59,2.54,0.83,4.1c-0.2,0.41-0.54,0.76-0.81,1.15C108.1,35.96,108.07,36.06,108.04,36.14z M106.76,32.69
		c0,0.5,0.37,0.9,0.85,0.91c0.47,0.01,0.9-0.4,0.9-0.87c0-0.49-0.39-0.89-0.86-0.9C107.14,31.82,106.76,32.19,106.76,32.69z"/>
	<path class="st4" d="M98.01,29.17c-0.06,0.23-0.16,0.46-0.19,0.69c-0.1,0.74,0.21,1.32,0.87,1.65c0.57,0.28,1.2,0.47,1.88,0.73
		c0,0.62,0.07,1.32-0.01,2.01c-0.18,1.5-1.75,2.62-3.26,2.37c-0.54-0.09-1.07-0.29-1.6-0.44c-0.2-0.22-0.41-0.44-0.6-0.67
		c-1.03-1.23-1.13-2.72-0.24-4.17c0.43-0.7,1.02-1.26,1.81-1.59c0.36-0.15,0.71-0.35,1.07-0.52C97.81,29.17,97.91,29.18,98.01,29.17
		z M95.08,32.69c0,0.5,0.36,0.9,0.8,0.91c0.36,0.01,0.91-0.55,0.92-0.93c0.01-0.44-0.41-0.85-0.88-0.84
		C95.45,31.83,95.08,32.21,95.08,32.69z"/>
	<path class="st1" d="M97.75,26.35c0,0.5-0.22,0.84-0.6,0.98c-0.48,0.18-0.93,0.1-1.24-0.26c-0.19-0.22-0.34-0.48-0.49-0.73
		c-1.15-1.94-3.91-2.23-5.46-0.58c-0.16,0.17-0.34,0.32-0.54,0.43c-0.46,0.26-0.92,0.21-1.26-0.09c-0.3-0.26-0.45-0.85-0.19-1.23
		c0.29-0.43,0.64-0.84,1.05-1.15c2.06-1.59,4.82-1.6,6.93-0.06c0.77,0.57,1.36,1.29,1.7,2.18c0.04,0.1,0.07,0.19,0.09,0.29
		C97.75,26.22,97.74,26.31,97.75,26.35z"/>
	<path class="st1" d="M105.85,26.13c0.01-0.38,0.33-0.88,0.7-1.34c1.25-1.57,2.9-2.36,4.93-2.26c1.51,0.08,2.81,0.67,3.83,1.79
		c0.2,0.22,0.33,0.55,0.4,0.84c0.11,0.44-0.1,0.83-0.5,1.06c-0.35,0.2-0.84,0.18-1.17-0.09c-0.23-0.19-0.41-0.42-0.63-0.62
		c-1.67-1.45-4.26-0.98-5.37,0.95c-0.18,0.32-0.44,0.67-0.75,0.83C106.55,27.66,105.85,27.17,105.85,26.13z"/>
	<path class="st4" d="M98.68,38.67c1.1-0.26,2.04-0.79,2.74-1.68c0.1-0.13,0.19-0.26,0.31-0.43c0.74,1.14,1.8,1.81,3.11,2.11
		c-1.57,0.57-3.18,0.64-4.81,0.33C99.57,38.93,99.13,38.79,98.68,38.67z"/>
	<path class="st3" d="M106.76,32.69c0-0.5,0.38-0.87,0.88-0.86c0.48,0.01,0.86,0.41,0.86,0.9c0,0.47-0.43,0.88-0.9,0.87
		C107.12,33.58,106.75,33.19,106.76,32.69z"/>
	<path class="st3" d="M95.08,32.69c0-0.48,0.37-0.86,0.85-0.87c0.46-0.01,0.88,0.4,0.88,0.84c-0.01,0.38-0.56,0.94-0.92,0.93
		C95.44,33.59,95.09,33.19,95.08,32.69z"/>
</g>
<path class="st1" d="M125.18,34.65c-0.53-0.39-1.06-0.74-1.59-1.06c0.43-1.63,0.67-3.33,0.67-5.09c0-11.64-10.1-21.1-22.51-21.1
	s-22.51,9.47-22.51,21.1c0,1.78,0.24,3.51,0.68,5.16c-0.53,0.33-1.05,0.67-1.58,1.06c-0.56,0.41-0.67,1.18-0.26,1.73
	c0.25,0.32,0.63,0.5,1.01,0.5c0.26,0,0.53-0.08,0.75-0.25c0.3-0.22,0.6-0.42,0.9-0.62c0.41,1,0.9,1.96,1.46,2.88
	c-0.85,0.84-1.7,1.79-2.51,2.87c-0.41,0.55-0.29,1.32,0.28,1.72c0.22,0.16,0.48,0.24,0.74,0.24c0.39,0,0.77-0.18,1.02-0.51
	c0.62-0.83,1.27-1.57,1.93-2.24c4.11,5.19,10.69,8.56,18.09,8.56c7.45,0,14.06-3.41,18.16-8.65c0.64,0.66,1.28,1.39,1.89,2.2
	c0.25,0.33,0.63,0.51,1.02,0.51c0.26,0,0.52-0.08,0.74-0.24c0.56-0.4,0.68-1.17,0.28-1.72c-0.8-1.07-1.64-2.01-2.48-2.84
	c0.55-0.91,1.03-1.86,1.43-2.85c0.3,0.2,0.6,0.4,0.9,0.62c0.23,0.17,0.49,0.25,0.75,0.25c0.38,0,0.76-0.17,1.01-0.5
	C125.85,35.83,125.74,35.06,125.18,34.65z M119.44,37.17c-3.06-2.45-5.73-3.43-5.89-3.49c-0.65-0.23-1.37,0.1-1.61,0.74
	c-0.24,0.64,0.1,1.35,0.75,1.58c0.04,0.01,2.54,0.93,5.38,3.26c-3.62,4.76-9.58,7.87-16.32,7.87c-6.7,0-12.62-3.07-16.25-7.78
	c2.8-2.28,5.28-3.21,5.34-3.23c0.65-0.23,0.99-0.94,0.75-1.58c-0.24-0.64-0.96-0.97-1.61-0.74c-0.16,0.06-2.82,1.03-5.86,3.47
	c-0.45-0.79-0.85-1.61-1.18-2.47c4.13-2.09,7.71-2.31,7.77-2.31c0.69-0.03,1.23-0.61,1.19-1.29c-0.03-0.68-0.62-1.21-1.32-1.17
	c-0.2,0.01-3.94,0.23-8.37,2.38c-0.29-1.26-0.44-2.57-0.44-3.91c0-9.16,7.1-16.78,16.46-18.34v4.66c0,0.68,0.56,1.23,1.26,1.23
	s1.26-0.55,1.26-1.23V9.89c0.34-0.02,0.68-0.02,1.02-0.02c0.32,0,0.64,0.01,0.96,0.02v4.93c0,0.68,0.56,1.23,1.26,1.23
	s1.26-0.55,1.26-1.23v-4.67c9.38,1.54,16.52,9.16,16.52,18.35c0,1.32-0.15,2.6-0.43,3.84c-4.43-2.14-8.16-2.36-8.36-2.37
	c-0.69-0.03-1.28,0.49-1.32,1.17c-0.04,0.68,0.5,1.26,1.19,1.29c0.04,0,3.61,0.21,7.76,2.31C120.27,35.58,119.88,36.39,119.44,37.17
	z"/>
<path class="st1" d="M41.71,33.19c0,5.54-0.26,10.07-0.77,13.58c-0.31,2.06-1.12,3.09-2.44,3.09c-1.47,0-2.2-0.79-2.2-2.38
	c0-0.07,0.09-0.87,0.26-2.4c0.21-1.8,0.37-3.62,0.51-5.46c0.18-2.74,0.26-5.6,0.26-8.6c0-5.08-0.44-10.61-1.32-16.59
	c-3.55,3.44-6.68,8.82-9.38,16.13c-0.54,1.53-1.09,3.05-1.63,4.56c-0.53,1.12-1.26,1.68-2.2,1.68c-0.9,0-1.56-0.44-2-1.32
	c-0.16-0.32-0.59-1.61-1.28-3.87c-1.81-5.95-5.21-11.56-10.2-16.85c-1.63,5.18-2.44,12.26-2.44,21.23c0,1.3,0.06,2.89,0.17,4.79
	c0.11,1.9,0.17,3.16,0.17,3.78c0,2.19-0.74,3.28-2.22,3.28c-1.16,0-1.9-0.69-2.22-2.07c-0.22-1.01-0.33-3.31-0.33-6.91
	c0-9.73,0.72-17.77,2.16-24.1c0.5-2.16,1.01-3.67,1.52-4.54c0.56-0.92,1.29-1.38,2.18-1.38c0.96,0,2.05,0.65,3.29,1.94
	c2.57,2.69,4.56,5.02,5.97,6.97c2.23,3.11,4.08,6.56,5.55,10.36c2.72-6.32,5.59-11.41,8.63-15.27c2.53-3.43,4.54-5.14,6.03-5.14
	c0.63,0,1.11,0.27,1.43,0.82c0.27,0.45,0.56,1.31,0.86,2.59C41.16,15.78,41.71,23.13,41.71,33.19z"/>
<path class="st1" d="M77.7,42.13c0,1.22-1.49,2.39-4.47,3.5c-2.88,1.07-6.29,1.77-10.24,2.12c-2.36,0.2-5.87,0.3-10.51,0.3
	c-1.65,0-2.76-0.06-3.35-0.17c-1.47-0.27-2.2-0.89-2.2-1.86c0-0.59,0.2-1.09,0.61-1.5c0.4-0.41,0.89-0.62,1.46-0.62h2.03
	c0.72-3.5,1.08-10.89,1.08-22.16c0-0.48-0.03-3.1-0.09-7.88c-0.48,0-0.98,0.01-1.5,0.02c-0.51,0.01-0.78,0.02-0.79,0.02
	c-1.54,0-2.31-0.66-2.31-1.99c0-0.88,0.4-1.49,1.21-1.84c0.75-0.3,2.03-0.45,3.85-0.45c7.62,0,13.71,0.68,18.26,2.03
	c3.04,0.91,4.56,1.97,4.56,3.17c0,0.5-0.19,0.96-0.58,1.37c-0.39,0.41-0.81,0.62-1.27,0.62c-0.26,0-0.83-0.17-1.7-0.52
	c-1.09-0.45-2.01-0.76-2.78-0.93c-2-0.49-6.17-0.94-12.53-1.34c0,2.61-0.03,6.74-0.09,12.4c1.85,0.12,3.63,0.17,5.33,0.17
	c1.19,0,2.42-0.04,3.7-0.13c1.28-0.09,1.97-0.13,2.07-0.13c1.59,0,2.38,0.66,2.38,1.99c0,1.04-0.67,1.69-2,1.97
	c-0.91,0.19-2.96,0.28-6.15,0.28c-1.76,0-3.57-0.04-5.42-0.13c-0.15,6.61-0.42,11.09-0.82,13.46h0.9c5.89,0,10.32-0.43,13.3-1.3
	c0.81-0.23,1.95-0.71,3.44-1.45c1.19-0.59,2.06-0.89,2.62-0.89c0.53,0,0.99,0.19,1.39,0.56C77.51,41.21,77.7,41.64,77.7,42.13z"/>
<path class="st1" d="M171.86,10.6c0,0.52-0.21,0.99-0.62,1.43c-0.41,0.43-0.87,0.65-1.37,0.65c-0.26,0-0.54-0.04-0.84-0.13
	c-0.29-0.09-0.53-0.17-0.71-0.24c-0.01,0-0.19-0.07-0.53-0.22c-0.95,16.28-3.22,28.17-6.81,35.66c-0.94,1.94-2.06,2.92-3.35,2.92
	c-3.64,0-6.35-7.03-8.13-21.1c-2.33,6.81-4.26,11.6-5.77,14.36c-1.7,3.14-3.38,4.71-5.04,4.71c-1.15,0-2.22-0.68-3.22-2.03
	c-0.95-1.3-1.99-3.42-3.11-6.37c-2.22-5.9-3.33-14.77-3.33-26.59v-1.56c-0.29,0.03-0.68,0.09-1.17,0.19
	c-0.41,0.09-0.7,0.13-0.88,0.13c-1.47,0-2.2-0.74-2.2-2.22c0-1.74,2.35-2.61,7.05-2.61c2.19,0,3.94,0.27,5.26,0.81
	c1.32,0.54,1.98,1.21,1.98,2.02c0,1.54-0.7,2.31-2.11,2.31c-0.35,0-0.89-0.1-1.61-0.3c-0.79-0.23-1.43-0.37-1.92-0.41l-0.09,5.4
	c0,10.73,1.82,19.47,5.46,26.22c2.26-3.07,4.83-9.21,7.71-18.44c0.51-1.64,1.03-3.66,1.54-6.07c0.43-1.99,0.76-3.25,1.01-3.8
	c0.4-0.88,0.98-1.32,1.74-1.32c1.07,0,1.77,0.5,2.09,1.49c0.22,0.71,0.33,2.17,0.33,4.41c0,0.36-0.01,0.79-0.02,1.29
	c-0.01,0.5-0.02,0.8-0.02,0.92c0,8.75,1.46,16.39,4.38,22.92c3.08-7.72,5.04-18.83,5.86-33.35c-0.22,0.01-0.59,0.08-1.12,0.19
	c-0.44,0.1-0.79,0.15-1.04,0.15c-1.44,0-2.16-0.73-2.16-2.2c0-1.68,1.97-2.53,5.9-2.53c2,0,3.66,0.35,4.98,1.04
	C171.25,8.96,171.86,9.72,171.86,10.6z"/>
</svg>
